<?xml version="1.0" encoding="iso-8859-1"?>
<!-- Uploaded to: SVG Repo, www.svgrepo.com, Generator: SVG Repo Mixer Tools -->
<svg fill="#000000" height="800px" width="800px" version="1.1" id="Layer_1" xmlns="http://www.w3.org/2000/svg" xmlns:xlink="http://www.w3.org/1999/xlink" 
	 viewBox="0 0 512 512" xml:space="preserve">
<g>
	<g>
		<path d="M267.169,42.911c-6.357-5.704-15.98-5.704-22.338,0c-3.636,3.266-89.154,81.131-89.154,179.648
			s85.519,176.382,89.154,179.648c3.179,2.853,7.174,4.278,11.169,4.278c3.995,0,7.99-1.426,11.169-4.278
			c3.636-3.266,89.154-81.131,89.154-179.648S270.805,46.177,267.169,42.911z"/>
	</g>
</g>
<g>
	<g>
		<path d="M399.05,73.576c-3.691-7.696-12.584-11.376-20.683-8.523c-0.975,0.349-15.464,5.591-35.415,16.198
			c8.351,12.592,16.494,26.806,23.609,42.307l0.801-0.289c15.538-5.595,31.003-9.65,45.549-12.604
			C406.205,88.704,399.502,74.519,399.05,73.576z"/>
	</g>
</g>
<g>
	<g>
		<path d="M122.235,222.56c0-24.081,4.37-46.777,11.078-67.825c-57.628-20.739-114.33-18.296-117.409-18.13
			c-8.709,0.446-15.61,7.501-15.861,16.209c-0.142,4.877-2.7,120.168,66.784,189.652c38.856,38.856,91.881,54.295,132.111,60.362
			C168.989,368.772,122.235,302.844,122.235,222.56z"/>
	</g>
</g>
<g>
	<g>
		<path d="M511.957,152.814c-0.25-8.708-7.151-15.762-15.86-16.209c-3.106-0.167-59.794-2.61-117.412,18.125
			c6.709,21.048,11.079,43.747,11.079,67.829c0,80.289-46.757,146.219-76.703,180.271c40.233-6.067,93.259-21.506,132.111-60.363
			C514.657,272.982,512.099,157.691,511.957,152.814z"/>
	</g>
</g>
<g>
	<g>
		<path d="M482.601,350.925c-4.296,5.21-8.883,10.284-13.784,15.185C402.054,432.893,303.527,440.1,264.262,440.1
			c-3.657,0-6.444-0.066-8.262-0.13c-1.829,0.066-4.616,0.13-8.262,0.13c-39.254,0-137.782-7.207-204.555-73.991
			c-4.9-4.9-9.487-9.974-13.784-15.185c-16.051,11.267-24.207,24.235-24.207,38.84c0,57.444,130.009,83.603,250.808,83.603
			s250.808-26.159,250.808-83.603C506.809,375.16,498.653,362.192,482.601,350.925z"/>
	</g>
</g>
<g>
	<g>
		<path d="M133.633,65.052c-8.077-2.896-16.981,0.827-20.683,8.523c-0.451,0.944-7.155,15.127-13.86,37.087
			c14.546,2.952,30.01,7.005,45.549,12.595l0.804,0.291c7.115-15.499,15.257-29.709,23.606-42.299
			C149.096,70.644,134.608,65.401,133.633,65.052z"/>
	</g>
</g>
</svg>